<svg width="62" height="58" viewBox="0 0 62 58" fill="none" xmlns="http://www.w3.org/2000/svg">
<g id="Filter-btn">
<rect id="Rectangle 28" width="62" height="58" rx="20" fill="#D4EBDC"/>
<path id="Vector" d="M19 23.4988C19 23.2336 19.1054 22.9793 19.2929 22.7917C19.4804 22.6042 19.7348 22.4988 20 22.4988H24.6462C24.8618 21.7768 25.3046 21.1436 25.9088 20.6934C26.5131 20.2432 27.2465 20 28 20C28.7535 20 29.4869 20.2432 30.0912 20.6934C30.6954 21.1436 31.1382 21.7768 31.3538 22.4988H42C42.2652 22.4988 42.5196 22.6042 42.7071 22.7917C42.8946 22.9793 43 23.2336 43 23.4988C43 23.764 42.8946 24.0184 42.7071 24.2059C42.5196 24.3935 42.2652 24.4988 42 24.4988H31.3538C31.1382 25.2209 30.6954 25.854 30.0912 26.3043C29.4869 26.7545 28.7535 26.9976 28 26.9976C27.2465 26.9976 26.5131 26.7545 25.9088 26.3043C25.3046 25.854 24.8618 25.2209 24.6462 24.4988H20C19.7348 24.4988 19.4804 24.3935 19.2929 24.2059C19.1054 24.0184 19 23.764 19 23.4988ZM42 34.4988H39.3538C39.1382 33.7768 38.6954 33.1436 38.0912 32.6934C37.4869 32.2432 36.7535 32 36 32C35.2465 32 34.5131 32.2432 33.9088 32.6934C33.3046 33.1436 32.8618 33.7768 32.6462 34.4988H20C19.7348 34.4988 19.4804 34.6042 19.2929 34.7917C19.1054 34.9792 19 35.2336 19 35.4988C19 35.764 19.1054 36.0184 19.2929 36.2059C19.4804 36.3935 19.7348 36.4988 20 36.4988H32.6462C32.8618 37.2209 33.3046 37.854 33.9088 38.3043C34.5131 38.7545 35.2465 38.9976 36 38.9976C36.7535 38.9976 37.4869 38.7545 38.0912 38.3043C38.6954 37.854 39.1382 37.2209 39.3538 36.4988H42C42.2652 36.4988 42.5196 36.3935 42.7071 36.2059C42.8946 36.0184 43 35.764 43 35.4988C43 35.2336 42.8946 34.9792 42.7071 34.7917C42.5196 34.6042 42.2652 34.4988 42 34.4988Z" fill="#53BF6D"/>
</g>
</svg>
